<svg xmlns="http://www.w3.org/2000/svg" width="1024" height="1024" viewBox="0 0 1024 1024" version="1.1"><path d="M 315.776 244.733 C 318.128 244.945, 321.728 244.942, 323.776 244.727 C 325.824 244.512, 323.900 244.339, 319.500 244.343 C 315.100 244.346, 313.424 244.522, 315.776 244.733 M 716.458 395.250 C 716.195 395.938, 716.097 419.225, 716.240 447 L 716.501 497.500 717 445.750 C 717.275 417.287, 717.373 394, 717.219 394 C 717.064 394, 716.722 394.563, 716.458 395.250 M 206.336 415 C 206.336 419.125, 206.513 420.813, 206.728 418.750 C 206.944 416.688, 206.944 413.313, 206.728 411.250 C 206.513 409.188, 206.336 410.875, 206.336 415 M 808.402 537 C 808.402 545.525, 808.556 549.013, 808.743 544.750 C 808.931 540.487, 808.931 533.513, 808.743 529.250 C 808.556 524.987, 808.402 528.475, 808.402 537 M 214.343 530.500 C 214.346 534.900, 214.522 536.576, 214.733 534.224 C 214.945 531.872, 214.942 528.272, 214.727 526.224 C 214.512 524.176, 214.339 526.100, 214.343 530.500 M 446.971 678.750 L 440.500 685.500 447.250 679.029 C 450.962 675.470, 454 672.432, 454 672.279 C 454 671.543, 452.982 672.480, 446.971 678.750 M 268 679.500 C 271.543 683.075, 274.667 686, 274.942 686 C 275.217 686, 272.543 683.075, 269 679.500 C 265.457 675.925, 262.333 673, 262.058 673 C 261.783 673, 264.457 675.925, 268 679.500 M 355.768 707.725 C 357.565 707.947, 360.265 707.943, 361.768 707.715 C 363.271 707.486, 361.800 707.304, 358.500 707.310 C 355.200 707.315, 353.971 707.502, 355.768 707.725" stroke="none" fill="#f4fbfc" fill-rule="evenodd"/><path d="M 306.300 246.806 C 284.702 254.501, 275.243 278.624, 285.557 299.706 C 289.037 306.818, 294.323 312.229, 301.270 315.790 L 307.041 318.748 307.010 412.051 C 306.994 463.367, 306.798 505.536, 306.575 505.759 C 306.190 506.143, 292.529 507.568, 279.500 508.582 C 276.200 508.839, 269.912 509.488, 265.526 510.025 C 261.141 510.561, 257.290 511, 256.968 511 C 256.647 511, 256.289 497.894, 256.173 481.875 C 255.954 451.631, 256.156 450, 260.122 450 C 261.155 450, 262 449.580, 262 449.067 C 262 448.554, 262.942 447.836, 264.094 447.470 C 267.608 446.355, 275.662 437.691, 278.334 432.151 C 281.580 425.422, 282.130 422.752, 282.166 413.537 C 282.191 407.138, 281.732 405.012, 279.186 399.736 C 275.405 391.904, 268.989 385.344, 260.831 380.972 C 254.856 377.770, 253.933 377.577, 244.415 377.540 C 234.956 377.502, 233.921 377.705, 227.738 380.809 C 220.232 384.576, 214.386 390.405, 210.336 398.160 C 207.777 403.059, 207.546 404.408, 207.544 414.500 C 207.542 423.576, 207.934 426.480, 209.787 431.102 C 212.454 437.754, 219.190 444.961, 226.704 449.202 L 232 452.191 232 482.406 L 232 512.621 226.250 514.366 C 223.088 515.325, 219.375 517.035, 218 518.166 C 215.534 520.193, 215.496 520.455, 215.186 537.537 C 214.809 558.363, 215.059 559.090, 224.467 564.594 C 228.060 566.696, 231.001 568.660, 231.001 568.958 C 231.002 569.256, 232.104 570.781, 233.450 572.346 C 236.376 575.748, 237.584 581.321, 239.014 598 C 240.893 619.931, 245.917 642.613, 251.527 654.500 C 261.738 676.132, 278.033 690.744, 301.500 699.309 C 314.292 703.978, 333.002 706.554, 356.500 706.882 C 372.133 707.100, 397.320 704.949, 400.857 703.094 C 401.761 702.620, 404.403 701.917, 406.729 701.532 C 409.054 701.147, 413.802 699.631, 417.279 698.165 C 439.489 688.794, 456.118 672.596, 467.749 649 C 472.705 638.947, 479.053 619.516, 480.491 610 C 481.557 602.944, 481.729 601.879, 482.833 595.500 C 483.404 592.200, 484.178 586.125, 484.553 582 C 484.929 577.875, 485.881 572.877, 486.669 570.893 C 487.927 567.728, 488.815 567.070, 493.916 565.526 C 502.584 562.901, 525.715 563.675, 531.682 566.789 C 533.982 567.989, 536.135 569.410, 536.466 569.945 C 536.797 570.481, 537.943 578.249, 539.013 587.209 C 540.083 596.169, 541.422 605.075, 541.990 607 C 542.558 608.925, 543.232 612.075, 543.489 614 C 543.746 615.925, 544.387 618.971, 544.914 620.768 C 545.440 622.566, 545.901 624.366, 545.938 624.768 C 546.341 629.152, 553.282 646.455, 557.865 654.500 C 560.058 658.350, 562.633 663.007, 563.587 664.848 C 566.088 669.677, 579.416 682.865, 587 688.015 C 598.565 695.869, 617.664 702.943, 631.500 704.499 C 634.800 704.870, 638.625 705.399, 640 705.674 C 641.375 705.949, 649.925 706.410, 659 706.698 C 688.829 707.645, 714.621 703.295, 732.457 694.311 C 750.484 685.230, 761.489 674.081, 770.769 655.500 C 776.581 643.861, 783.469 616.414, 783.929 603.061 C 784.032 600.069, 784.269 597.369, 784.456 597.061 C 784.643 596.752, 785.086 593.575, 785.440 590 C 786.275 581.577, 786.926 578.364, 788.344 575.669 C 791.196 570.249, 794.602 566.678, 799.620 563.845 C 808.010 559.110, 808 559.140, 808 538.924 C 808 521.745, 807.939 521.226, 805.623 518.727 C 804.315 517.316, 801.503 515.662, 799.373 515.051 C 791.564 512.810, 763.565 509.525, 735.500 507.556 C 730.550 507.209, 724.170 506.689, 721.323 506.400 L 716.145 505.874 716.040 450.498 L 715.934 395.123 720.217 393.213 C 736.499 385.953, 745.461 367.470, 741.335 349.663 C 739.568 342.035, 735.985 336.071, 729.866 330.569 C 722.508 323.954, 715.636 321.563, 704 321.568 C 695.733 321.571, 693.780 321.921, 688.954 324.262 C 667.782 334.532, 660.634 361.051, 673.723 380.771 C 676.943 385.621, 685.353 392.504, 690.250 394.297 C 692.222 395.018, 692.073 389.204, 692 462.437 C 691.977 485.503, 691.822 504.511, 691.655 504.678 C 691.489 504.845, 681.036 505.015, 668.426 505.056 C 635.963 505.162, 617.285 506.515, 598.500 510.123 C 576.276 514.391, 563.288 520.636, 551.442 532.750 C 548.302 535.961, 543.800 537.103, 542.509 535.015 C 542.175 534.474, 540.911 534.022, 539.700 534.011 C 538.490 534, 534.350 533.609, 530.500 533.142 C 522.967 532.227, 493.747 532.395, 488 533.386 C 482.048 534.412, 481.531 534.537, 480.452 535.212 C 477.293 537.190, 472.826 534.635, 463.288 525.393 C 459.357 521.584, 445.033 514.680, 436.233 512.351 C 426.944 509.894, 423.459 509.235, 407.500 506.921 C 403.650 506.363, 385.200 505.658, 366.500 505.355 C 347.800 505.051, 332.356 504.665, 332.179 504.497 C 331.903 504.235, 331.652 335.648, 331.908 322.942 C 331.996 318.600, 332.193 318.300, 336.091 316.580 C 341.339 314.264, 349.752 305.819, 353.147 299.459 C 360.910 284.912, 358.506 267.601, 347.145 256.241 C 339.471 248.566, 332.617 245.694, 321 245.287 C 313.646 245.029, 310.325 245.372, 306.300 246.806 M 310.708 269.899 C 307.003 272.547, 304 278.143, 304 282.398 C 304 286.061, 306.683 291.606, 309.545 293.857 C 316.178 299.075, 328 296.903, 332.034 289.726 C 334.283 285.725, 334.808 281.276, 333.559 276.794 C 332.731 273.821, 326.604 268.062, 324.089 267.893 C 314.876 267.273, 314.251 267.367, 310.708 269.899 M 701.563 344.047 C 695.691 345.089, 690 351.679, 690 357.436 C 690 363.775, 691.603 367.174, 696.091 370.358 C 702.141 374.649, 708.792 374.422, 714.306 369.735 C 718.491 366.178, 720.369 360.826, 719.373 355.298 C 718.599 351.005, 713.233 345.041, 709.570 344.405 C 707.959 344.125, 706.384 343.773, 706.070 343.622 C 705.757 343.472, 703.729 343.663, 701.563 344.047 M 236.798 402.280 C 232.804 404.461, 230 409.708, 230 415 C 230 418.257, 232.784 426, 233.956 426 C 234.362 426, 235.775 426.947, 237.097 428.105 C 239.152 429.905, 240.328 430.124, 245.221 429.623 C 251.689 428.960, 255.433 426.444, 257.630 421.282 C 260.579 414.355, 258.053 405.326, 252.318 402.293 C 247.888 399.951, 241.075 399.945, 236.798 402.280 M 366.687 531.607 C 366.584 531.689, 357.136 532.054, 345.692 532.419 C 334.247 532.784, 322.772 533.290, 320.192 533.543 C 317.611 533.795, 313.250 534.193, 310.500 534.426 C 292.282 535.970, 280.365 539.643, 273.872 545.717 C 271.192 548.223, 269 550.887, 269 551.637 C 269 552.387, 268.625 553, 268.167 553 C 267.708 553, 267.290 553.563, 267.237 554.250 C 267.183 554.938, 266.463 558.200, 265.636 561.500 C 263.693 569.253, 263.609 594.486, 265.487 606.584 C 266.248 611.488, 267.103 617.075, 267.387 619 C 267.671 620.925, 268.414 624.525, 269.038 627 C 269.663 629.475, 270.384 632.598, 270.641 633.940 C 271.292 637.338, 274.997 645.979, 277.148 649.113 C 278.134 650.550, 278.654 652.012, 278.304 652.363 C 277.953 652.713, 278.192 653, 278.833 653 C 279.475 653, 280 653.429, 280 653.953 C 280 655.513, 289.087 664.901, 293.968 668.383 C 298.042 671.290, 311.360 676.545, 316.500 677.274 C 317.600 677.430, 318.950 677.839, 319.500 678.182 C 320.050 678.525, 324.100 679.072, 328.500 679.397 C 332.900 679.722, 339.490 680.257, 343.145 680.585 C 351.500 681.335, 371.005 681.410, 373 680.698 C 373.825 680.404, 377.875 679.919, 382 679.620 C 390.414 679.010, 393.076 678.543, 402 676.110 C 404.475 675.435, 407.918 674.234, 409.651 673.441 C 411.384 672.649, 413.467 672, 414.279 672 C 415.091 672, 416.295 671.350, 416.954 670.555 C 417.614 669.760, 420.408 667.664, 423.162 665.896 C 429.027 662.133, 438.570 651.176, 441.961 644.312 C 443.269 641.665, 444.683 639.267, 445.104 638.981 C 445.964 638.399, 450.344 625.372, 451.487 620 C 451.896 618.075, 452.576 616.050, 452.997 615.500 C 454.255 613.858, 456.342 599.303, 457.513 584 C 458.516 570.896, 454.494 556.031, 448 548.839 C 440.489 540.519, 422.287 534.692, 399.757 533.394 C 394.116 533.069, 384.409 532.501, 378.187 532.132 C 371.965 531.762, 366.790 531.526, 366.687 531.607 M 644 532.118 C 639.875 532.511, 631.646 533.037, 625.714 533.286 C 619.781 533.535, 614.644 534.023, 614.297 534.370 C 613.950 534.716, 612.373 535, 610.791 535 C 604.732 535, 592.523 538.266, 586.149 541.592 C 579.568 545.025, 568.523 555.418, 569.600 557.162 C 569.885 557.623, 569.698 558, 569.184 558 C 568.670 558, 567.911 559.462, 567.498 561.250 C 567.084 563.038, 566.505 565.175, 566.212 566 C 565.919 566.825, 565.679 573.575, 565.680 581 C 565.681 596.230, 569.101 616.367, 573.545 627.303 C 574.895 630.626, 576 633.762, 576 634.272 C 576 636.823, 587.904 654.937, 592.884 659.964 C 600.068 667.215, 605.330 670.532, 615.457 674.196 C 638.609 682.572, 689.172 683.172, 713.500 675.360 C 716.250 674.477, 718.927 673.359, 719.450 672.877 C 719.972 672.395, 721.178 672, 722.129 672 C 723.079 672, 724.564 671.293, 725.429 670.429 C 726.293 669.564, 727.007 669.227, 727.015 669.679 C 727.024 670.130, 727.361 670.028, 727.765 669.452 C 728.169 668.875, 730.071 667.305, 731.991 665.962 C 733.911 664.619, 736.836 661.976, 738.491 660.087 C 740.146 658.199, 742.063 656.089, 742.750 655.398 C 743.438 654.708, 744 653.661, 744 653.071 C 744 652.482, 744.477 652, 745.059 652 C 745.641 652, 745.840 651.550, 745.500 651 C 745.160 650.450, 745.259 650, 745.721 650 C 746.182 650, 747.433 647.750, 748.500 645 C 749.567 642.250, 750.763 640, 751.158 640 C 751.553 640, 751.854 639.212, 751.827 638.250 C 751.800 637.288, 752.757 632.900, 753.954 628.500 C 757.049 617.118, 757.079 616.979, 757.514 611.932 C 757.730 609.420, 758.236 605.820, 758.637 603.932 C 760.016 597.448, 759.601 564.922, 758.058 558.500 C 757.266 555.200, 756.344 552.275, 756.010 552 C 755.677 551.725, 754.412 550.080, 753.201 548.345 C 750.327 544.228, 744.186 540.709, 735.500 538.202 C 729.513 536.475, 717.741 534.407, 715.932 534.766 C 715.620 534.828, 711.120 534.462, 705.932 533.953 C 700.745 533.444, 686.825 532.764, 675 532.441 C 663.175 532.119, 653.050 531.753, 652.500 531.629 C 651.950 531.505, 648.125 531.725, 644 532.118" stroke="none" fill="#fcfcfc" fill-rule="evenodd"/></svg>